<svg xmlns="http://www.w3.org/2000/svg" viewBox="0 0 300.8 115.09"><defs><style>.cls-1{fill:#fff;}</style></defs><title>Recurso 1</title><g id="Capa_2" data-name="Capa 2"><g id="Capa_1-2" data-name="Capa 1"><path d="M203.44,54c9.79-7.3,9.78-7.29,17.69,1.58q8.66,9.69,17.38,19.31c2.82,3.1,5.41,5.63,10.08,1.92,1.39-1.1,5.84.16,7.93,1.67,8.35,6,16.34,12.61,24.43,19,6.64,5.26,13.24,10.59,19.85,15.88l-.66,1.1c-3.47-2-7.23-3.58-10.34-6-8.38-6.57-16.37-13.65-24.75-20.23-4.08-3.21-8.69-5.75-13.54-8.91-1,12.57,7.15,20.82,10.95,32.08-2.69-.93-4.36-1.23-5.71-2-5.44-3.23-10.79-6.61-16.15-10-5.55-3.48-6-6-2.12-11.3,1.28-1.71,2.55-3.45,1.76-3.46L215,55.76c-3.46,10.5.36,21.69-8.83,28.68l.65,1.22,11-.86c-6,9.52-11.4,18.25-10.38,30.29-10.23-5.84-19.37-10.48-27.9-16C166,90.21,152.73,81,139.67,71.46c-4.51-3.28-8.16-7.78-12.11-11.81-3.38-3.44-6.43-7.23-10-10.45-6.35-5.73-8.64-4.94-11.14,3.36-.77,2.55-1.34,5.16-2.21,7.67-2.15,6.24-4.43,12.43-6.73,18.86l3.15.59c-3.88,6.67-7.6,13-11.31,19.44-2,3.45-4.49,6.73-5.87,10.43-1.76,4.72-4.78,5.35-9.28,5.23-12.3-.33-24.61-.11-38.12-.11L55.67,84.2l-1.45-1c-1.86,2.34-3.75,4.66-5.57,7-2.74,3.56-5.24,7.34-8.23,10.67-1.29,1.44-4.48,3.28-5.23,2.75-4.37-3.13-6.31,0-7.82,2.84-3.25,6.08-7.95,8.2-14.69,7.27-3.91-.53-8-.09-12.68-.09a20.6,20.6,0,0,1,1.63-3.44C5.84,104.59,10.07,99,14.38,93.53a20.17,20.17,0,0,1,13.68-8c4.16-.63,8.22-3.88,11.66-6.75,2.87-2.4,4.73-6,7.1-9,4.44-5.63,9.91-8.72,17.39-7.25,5.75,1.13,10-1.8,13.59-5.79,5.45-6.07,10.61-12.4,16-18.52,5.91-6.69,7.49-7.15,15.34-2.82,3.74,2,6.36,1.85,9.06-1.27,7.39-8.55,14.84-17,22.25-25.57,1.2-1.39,2.16-3,3.41-4.3,5.36-5.67,10.54-5.76,15.77.08,9.34,10.41,18.48,21,27.72,31.51C192.71,41.93,198.1,48,203.44,54ZM147,47.44a21,21,0,0,0,0,3.31c1.35,7.15,2.73,14.29,4.19,21.42a3.44,3.44,0,0,0,1.36,1.9c5.77,4.12,11.58,8.18,17.73,12.5C178.65,79,186.79,71.93,194.6,64.5c4.64-4.42,5-8.15.64-13.09-11-12.65-22.4-25-33.69-37.4a53.1,53.1,0,0,0-5.12-4.18c0,4.72-.14,8.11,0,11.48.32,6.3,1.35,12.61,1.1,18.88C157.25,47.68,154.87,49.09,147,47.44Z"/><path class="cls-1" d="M147,47.44c7.83,1.65,10.21.24,10.52-7.26.26-6.27-.78-12.58-1.1-18.88-.17-3.37,0-6.76,0-11.48A53.1,53.1,0,0,1,161.55,14c11.29,12.42,22.66,24.76,33.69,37.4,4.31,4.94,4,8.67-.64,13.09-7.82,7.44-15.95,14.54-24.26,22.07-6.14-4.32-12-8.38-17.73-12.5a3.52,3.52,0,0,1-1.36-1.9q-2.19-10.69-4.19-21.42A20.83,20.83,0,0,1,147,47.44Z"/></g></g></svg>